<?xml version="1.0" encoding="UTF-8" standalone="no"?>
<!-- Created with Inkscape (http://www.inkscape.org/) -->

<svg
   xmlns:dc="http://purl.org/dc/elements/1.1/"
   xmlns:cc="http://creativecommons.org/ns#"
   xmlns:rdf="http://www.w3.org/1999/02/22-rdf-syntax-ns#"
   xmlns:svg="http://www.w3.org/2000/svg"
   xmlns="http://www.w3.org/2000/svg"
   xmlns:xlink="http://www.w3.org/1999/xlink"
   xmlns:sodipodi="http://sodipodi.sourceforge.net/DTD/sodipodi-0.dtd"
   xmlns:inkscape="http://www.inkscape.org/namespaces/inkscape"
   width="1024"
   height="1024"
   viewBox="0 0 1024 1024"
   id="svg2"
   version="1.1"
   inkscape:version="0.91 r"
   sodipodi:docname="djo-logo-in-magnifier2-big.svg"
   inkscape:export-filename="/home/ritz/stack/gfx/djo/djo-logo-in-magnifier2-big.png"
   inkscape:export-xdpi="168.75"
   inkscape:export-ydpi="168.75">
  <sodipodi:namedview
     id="base"
     pagecolor="#ffffff"
     bordercolor="#000000"
     borderopacity="1"
     inkscape:pageopacity="0.0"
     inkscape:pageshadow="2"
     inkscape:zoom="0.4310713"
     inkscape:cx="512"
     inkscape:cy="512"
     inkscape:document-units="px"
     inkscape:current-layer="layer7"
     showgrid="false"
     inkscape:snap-grids="false"
     inkscape:showpageshadow="true"
     inkscape:window-width="1920"
     inkscape:window-height="1059"
     inkscape:window-x="1366"
     inkscape:window-y="0"
     inkscape:window-maximized="1"
     showguides="false"
     inkscape:guide-bbox="true"
     borderlayer="true"
     units="px"
     inkscape:snap-page="true"
     inkscape:snap-bbox="true"
     inkscape:bbox-nodes="true"
     inkscape:bbox-paths="true"
     inkscape:snap-global="false"
     inkscape:snap-nodes="false"
     inkscape:snap-others="false">
    <sodipodi:guide
       position="13.413529,233.77864"
       orientation="1,0"
       id="guide11193" />
    <sodipodi:guide
       position="511.63031,245.27595"
       orientation="1,0"
       id="guide11215" />
  </sodipodi:namedview>
  <defs
     id="defs4">
    <linearGradient
       inkscape:collect="always"
       id="linearGradient5637">
      <stop
         style="stop-color:#0080d0;stop-opacity:1"
         offset="0"
         id="stop5639" />
      <stop
         id="stop5645"
         offset="0.46416882"
         style="stop-color:#0080d0;stop-opacity:1;" />
      <stop
         style="stop-color:#0080d0;stop-opacity:1;"
         offset="0.72634822"
         id="stop5647" />
      <stop
         style="stop-color:#0060a0;stop-opacity:1"
         offset="1"
         id="stop5641" />
    </linearGradient>
    <linearGradient
       inkscape:collect="always"
       id="linearGradient5625">
      <stop
         id="stop5629"
         offset="0"
         style="stop-color:#0080d0;stop-opacity:0;" />
      <stop
         style="stop-color:#0080d0;stop-opacity:0"
         offset="0.87920886"
         id="stop5635" />
      <stop
         id="stop5627"
         offset="1"
         style="stop-color:#0080d0;stop-opacity:1;" />
    </linearGradient>
    <linearGradient
       inkscape:collect="always"
       id="linearGradient5529">
      <stop
         id="stop5533"
         offset="0"
         style="stop-color:#200000;stop-opacity:0" />
      <stop
         style="stop-color:#180000;stop-opacity:0.24705882;"
         offset="0.67870933"
         id="stop5541" />
      <stop
         style="stop-color:#100000;stop-opacity:0.49803922;"
         offset="0.87090045"
         id="stop5539" />
      <stop
         id="stop5531"
         offset="1"
         style="stop-color:#000000;stop-opacity:1" />
    </linearGradient>
    <linearGradient
       id="linearGradient5373"
       inkscape:collect="always">
      <stop
         id="stop5375"
         offset="0"
         style="stop-color:#ffffff;stop-opacity:1" />
      <stop
         style="stop-color:#eff5ff;stop-opacity:0.50196081"
         offset="0.33000001"
         id="stop5383" />
      <stop
         style="stop-color:#e0ecff;stop-opacity:0.1882353"
         offset="0.66000003"
         id="stop5381" />
      <stop
         id="stop5377"
         offset="1"
         style="stop-color:#e0ecff;stop-opacity:0" />
    </linearGradient>
    <linearGradient
       inkscape:collect="always"
       id="linearGradient5339">
      <stop
         id="stop5341"
         offset="0"
         style="stop-color:#ffffff;stop-opacity:0" />
      <stop
         style="stop-color:#a0e0ff;stop-opacity:0.25098041"
         offset="0.48987877"
         id="stop5379" />
      <stop
         style="stop-color:#80a0bb;stop-opacity:0.50196081"
         offset="0.76671124"
         id="stop5343" />
      <stop
         style="stop-color:#7290a8;stop-opacity:0.75294119"
         offset="0.9329465"
         id="stop5345" />
      <stop
         id="stop5347"
         offset="1"
         style="stop-color:#98c0e0;stop-opacity:1" />
    </linearGradient>
    <linearGradient
       inkscape:collect="always"
       id="linearGradient11343">
      <stop
         style="stop-color:#00b0f0;stop-opacity:1;"
         offset="0"
         id="stop11345" />
      <stop
         id="stop11353"
         offset="0.25"
         style="stop-color:#00a4e8;stop-opacity:1;" />
      <stop
         id="stop11351"
         offset="0.67560977"
         style="stop-color:#0098e0;stop-opacity:0.71165645" />
      <stop
         style="stop-color:#0098e0;stop-opacity:0"
         offset="1"
         id="stop11347" />
    </linearGradient>
    <clipPath
       clipPathUnits="userSpaceOnUse"
       id="clipPath4294">
      <circle
         r="37.093002"
         cy="-861.95068"
         cx="32.389736"
         id="circle4296"
         style="display:inline;opacity:1;fill:#d40000;fill-opacity:0.18954252;stroke:none;stroke-width:2.01180458;stroke-linecap:round;stroke-linejoin:round;stroke-miterlimit:4;stroke-dasharray:none;stroke-opacity:1"
         transform="matrix(0,1,-1,0,0,0)" />
    </clipPath>
    <clipPath
       clipPathUnits="userSpaceOnUse"
       id="clipPath4294-2">
      <circle
         r="37.093002"
         cy="-861.95068"
         cx="32.389736"
         id="circle4296-0"
         style="display:inline;opacity:1;fill:#d40000;fill-opacity:0.18954252;stroke:none;stroke-width:2.01180458;stroke-linecap:round;stroke-linejoin:round;stroke-miterlimit:4;stroke-dasharray:none;stroke-opacity:1"
         transform="matrix(0,1,-1,0,0,0)" />
    </clipPath>
    <linearGradient
       inkscape:collect="always"
       id="linearGradient4847">
      <stop
         style="stop-color:#202020;stop-opacity:1"
         offset="0"
         id="stop4904" />
      <stop
         id="stop4906"
         offset="0.10111113"
         style="stop-color:#404040;stop-opacity:1" />
      <stop
         id="stop4908"
         offset="0.20222226"
         style="stop-color:#ffffff;stop-opacity:1" />
      <stop
         style="stop-color:#000000;stop-opacity:1"
         offset="0.31444448"
         id="stop4910" />
      <stop
         id="stop4912"
         offset="0.9105556"
         style="stop-color:#505050;stop-opacity:1" />
      <stop
         style="stop-color:#181818;stop-opacity:1"
         offset="1"
         id="stop4914" />
    </linearGradient>
    <linearGradient
       inkscape:collect="always"
       id="linearGradient4835">
      <stop
         style="stop-color:#c0c0c0;stop-opacity:1"
         offset="0"
         id="stop4823" />
      <stop
         id="stop4845"
         offset="0.20171747"
         style="stop-color:#ffffff;stop-opacity:1;" />
      <stop
         id="stop4837"
         offset="0.40343493"
         style="stop-color:#ffffff;stop-opacity:1" />
      <stop
         style="stop-color:#505050;stop-opacity:1"
         offset="0.63880384"
         id="stop4839" />
      <stop
         style="stop-color:#e0e0e0;stop-opacity:1"
         offset="0.81459904"
         id="stop4843" />
      <stop
         style="stop-color:#000000;stop-opacity:1"
         offset="1"
         id="stop4825" />
    </linearGradient>
    <linearGradient
       id="linearGradient4203"
       inkscape:collect="always">
      <stop
         id="stop4205"
         offset="0"
         style="stop-color:#202020;stop-opacity:1" />
      <stop
         style="stop-color:#404040;stop-opacity:1"
         offset="0.0720211"
         id="stop4207" />
      <stop
         style="stop-color:#ffffff;stop-opacity:1"
         offset="0.20222226"
         id="stop4209" />
      <stop
         id="stop4211"
         offset="0.68580341"
         style="stop-color:#000000;stop-opacity:1" />
      <stop
         style="stop-color:#505050;stop-opacity:1"
         offset="0.900383"
         id="stop4213" />
      <stop
         id="stop4215"
         offset="1"
         style="stop-color:#181818;stop-opacity:1" />
    </linearGradient>
    <linearGradient
       id="linearGradient4217"
       inkscape:collect="always">
      <stop
         id="stop4219"
         offset="0"
         style="stop-color:#c0c0c0;stop-opacity:1" />
      <stop
         style="stop-color:#ffffff;stop-opacity:1;"
         offset="0.02978992"
         id="stop4221" />
      <stop
         style="stop-color:#ececec;stop-opacity:1"
         offset="0.15841714"
         id="stop4223" />
      <stop
         id="stop4225"
         offset="0.48297706"
         style="stop-color:#505050;stop-opacity:1" />
      <stop
         id="stop4227"
         offset="0.57359111"
         style="stop-color:#e0e0e0;stop-opacity:1" />
      <stop
         id="stop4229"
         offset="1"
         style="stop-color:#000000;stop-opacity:1" />
    </linearGradient>
    <linearGradient
       inkscape:collect="always"
       xlink:href="#linearGradient4847"
       id="linearGradient5289"
       gradientUnits="userSpaceOnUse"
       gradientTransform="matrix(0.82925518,0,0,3.38146,384.81185,443.52603)"
       x1="385.31708"
       y1="-35.164211"
       x2="452.10934"
       y2="-35.164211" />
    <linearGradient
       inkscape:collect="always"
       xlink:href="#linearGradient4835"
       id="linearGradient5291"
       gradientUnits="userSpaceOnUse"
       gradientTransform="matrix(1.5178928,1.3244717,-1.6210272,1.8577563,-440.9047,191.58656)"
       x1="453.98422"
       y1="-131.19664"
       x2="477.54517"
       y2="-131.19664" />
    <radialGradient
       inkscape:collect="always"
       xlink:href="#linearGradient5339"
       id="radialGradient5293"
       gradientUnits="userSpaceOnUse"
       gradientTransform="matrix(6.5574824,0,0,6.5574824,-620.73281,4020.1886)"
       cx="30.515726"
       cy="-517.73877"
       fx="30.515726"
       fy="-517.73877"
       r="36.182411" />
    <linearGradient
       inkscape:collect="always"
       xlink:href="#linearGradient4203"
       id="linearGradient5295"
       gradientUnits="userSpaceOnUse"
       gradientTransform="matrix(0.42296502,6.2155599,-6.2155599,0.42296502,-1766.0629,-1497.0403)"
       x1="369.58353"
       y1="-356.32379"
       x2="280.50455"
       y2="-379.61609" />
    <linearGradient
       inkscape:collect="always"
       xlink:href="#linearGradient4217"
       id="linearGradient5297"
       gradientUnits="userSpaceOnUse"
       gradientTransform="matrix(0.43460712,6.386643,-6.386643,0.43460712,-25.585328,-2806.2392)"
       x1="449.03113"
       y1="-80.360725"
       x2="537.39844"
       y2="-56.41433" />
    <radialGradient
       inkscape:collect="always"
       xlink:href="#linearGradient5373"
       id="radialGradient5299"
       gradientUnits="userSpaceOnUse"
       gradientTransform="matrix(6.0216697,-4.3461494,2.5866708,3.5838793,-2214.7515,2106.8552)"
       cx="442.05948"
       cy="34.186371"
       fx="442.07327"
       fy="26.111479"
       r="17.216787" />
    <radialGradient
       inkscape:collect="always"
       xlink:href="#linearGradient11343"
       id="radialGradient5519"
       cx="1440.6707"
       cy="67.485611"
       fx="1383.7678"
       fy="17.067451"
       r="245.78853"
       gradientUnits="userSpaceOnUse"
       gradientTransform="matrix(0.98603355,0,0,0.38365923,-1978.5461,457.72247)" />
    <linearGradient
       inkscape:collect="always"
       xlink:href="#linearGradient5529"
       id="linearGradient5535"
       x1="693.93665"
       y1="85.94046"
       x2="727.36597"
       y2="465.99545"
       gradientUnits="userSpaceOnUse"
       gradientTransform="translate(16.665834,58.671274)" />
    <radialGradient
       inkscape:collect="always"
       xlink:href="#linearGradient11343"
       id="radialGradient5559"
       gradientUnits="userSpaceOnUse"
       gradientTransform="matrix(0.47063441,0,0,0.18322155,-958.50077,331.92125)"
       cx="1440.6707"
       cy="67.485611"
       fx="1383.7678"
       fy="17.067451"
       r="245.78853" />
    <radialGradient
       inkscape:collect="always"
       xlink:href="#linearGradient11343"
       id="radialGradient5563"
       gradientUnits="userSpaceOnUse"
       gradientTransform="matrix(0.3369477,0,0,0.14333731,-1396.4891,157.77748)"
       cx="1440.6707"
       cy="67.485611"
       fx="1383.7678"
       fy="17.067451"
       r="245.78853" />
    <radialGradient
       inkscape:collect="always"
       xlink:href="#linearGradient11343"
       id="radialGradient5567"
       gradientUnits="userSpaceOnUse"
       gradientTransform="matrix(0.18469087,0,0,0.07856736,-675.88056,201.20993)"
       cx="1440.6707"
       cy="67.485611"
       fx="1383.7678"
       fy="17.067451"
       r="245.78853" />
    <radialGradient
       inkscape:collect="always"
       xlink:href="#linearGradient11343"
       id="radialGradient5571"
       gradientUnits="userSpaceOnUse"
       gradientTransform="matrix(0.20781897,0,0,0.08840604,-1040.3222,254.54304)"
       cx="1440.6707"
       cy="67.485611"
       fx="1383.7678"
       fy="17.067451"
       r="245.78853" />
    <radialGradient
       inkscape:collect="always"
       xlink:href="#linearGradient5625"
       id="radialGradient5631"
       cx="-541.07733"
       cy="152.47038"
       fx="-541.07733"
       fy="152.47038"
       r="512"
       gradientUnits="userSpaceOnUse" />
    <linearGradient
       inkscape:collect="always"
       xlink:href="#linearGradient5637"
       id="linearGradient5643"
       x1="-425.59326"
       y1="623.31818"
       x2="-626.82373"
       y2="-338.98065"
       gradientUnits="userSpaceOnUse" />
  </defs>
  <metadata
     id="metadata7">
    <rdf:RDF>
      <cc:Work
         rdf:about="">
        <dc:format>image/svg+xml</dc:format>
        <dc:type
           rdf:resource="http://purl.org/dc/dcmitype/StillImage" />
        <dc:title></dc:title>
      </cc:Work>
    </rdf:RDF>
  </metadata>
  <g
     inkscape:groupmode="layer"
     id="layer5"
     inkscape:label="back 1"
     style="display:inline"
     sodipodi:insensitive="true">
    <rect
       transform="translate(0,279.90552)"
       y="-279.90552"
       x="0"
       height="1024"
       width="1024"
       id="rect5453"
       style="display:inline;opacity:1;fill:#0080d0;fill-opacity:1;stroke:none;stroke-width:8;stroke-linecap:round;stroke-linejoin:round;stroke-miterlimit:4;stroke-dasharray:none;stroke-opacity:0.37423317" />
  </g>
  <g
     inkscape:groupmode="layer"
     id="layer7"
     inkscape:label="skydome-darkening"
     sodipodi:insensitive="true"
     style="display:none">
    <circle
       style="display:inline;opacity:1;fill:url(#linearGradient5643);fill-opacity:1;stroke:none;stroke-width:2;stroke-linecap:round;stroke-linejoin:round;stroke-miterlimit:4;stroke-dasharray:none;stroke-opacity:1"
       id="path5522"
       cx="-541.07733"
       cy="152.47038"
       r="512"
       transform="matrix(-0.98863099,-0.15036211,-0.15036211,0.98863099,0,279.90552)" />
  </g>
  <g
     inkscape:groupmode="layer"
     id="layer1"
     inkscape:label="circular + hilights"
     style="display:inline"
     transform="translate(0,279.90552)"
     sodipodi:insensitive="true">
    <flowRoot
       xml:space="preserve"
       id="flowRoot11110"
       style="font-style:normal;font-variant:normal;font-weight:normal;font-stretch:normal;font-size:40px;line-height:125%;font-family:'Patrick Hand';-inkscape-font-specification:'Patrick Hand';letter-spacing:0px;word-spacing:0px;fill:#000000;fill-opacity:1;stroke:none;stroke-width:1px;stroke-linecap:butt;stroke-linejoin:miter;stroke-opacity:1"><flowRegion
         id="flowRegion11112"><rect
           id="rect11114"
           width="508.98422"
           height="54.774792"
           x="6.7415128"
           y="668.25244"
           style="font-style:normal;font-variant:normal;font-weight:normal;font-stretch:normal;font-family:'Patrick Hand';-inkscape-font-specification:'Patrick Hand'" /></flowRegion><flowPara
         id="flowPara11116" /></flowRoot>    <rect
       style="opacity:1;fill:url(#radialGradient5519);fill-opacity:1;stroke:none;stroke-width:2;stroke-linecap:round;stroke-linejoin:round;stroke-miterlimit:4;stroke-dasharray:none;stroke-opacity:1"
       id="rect5511"
       width="484.71146"
       height="188.59807"
       x="-800.35193"
       y="389.31488"
       transform="matrix(-0.97918185,-0.20298498,-0.2069571,0.97835002,0,0)" />
    <rect
       transform="matrix(-0.97326562,-0.22968247,-0.23186047,0.97274905,0,0)"
       y="299.25235"
       x="-396.1481"
       height="90.067513"
       width="231.35309"
       id="rect5557"
       style="opacity:0.8;fill:url(#radialGradient5559);fill-opacity:1;stroke:none;stroke-width:2;stroke-linecap:round;stroke-linejoin:round;stroke-miterlimit:4;stroke-dasharray:none;stroke-opacity:1" />
    <rect
       style="opacity:0.7;fill:url(#radialGradient5563);fill-opacity:1;stroke:none;stroke-width:2;stroke-linecap:round;stroke-linejoin:round;stroke-miterlimit:4;stroke-dasharray:none;stroke-opacity:1"
       id="rect5561"
       width="165.63576"
       height="70.461334"
       x="-993.87659"
       y="132.22002"
       transform="matrix(-0.9160947,-0.40096197,-0.40096197,0.9160947,0,0)" />
    <rect
       transform="matrix(-0.97232476,-0.23363337,-0.23363337,0.97232476,0,0)"
       y="187.20094"
       x="-455.19656"
       height="38.621914"
       width="90.789795"
       id="rect5565"
       style="opacity:0.4;fill:url(#radialGradient5567);fill-opacity:1;stroke:none;stroke-width:2;stroke-linecap:round;stroke-linejoin:round;stroke-miterlimit:4;stroke-dasharray:none;stroke-opacity:1" />
    <rect
       style="opacity:0.55;fill:url(#radialGradient5571);fill-opacity:1;stroke:none;stroke-width:2;stroke-linecap:round;stroke-linejoin:round;stroke-miterlimit:4;stroke-dasharray:none;stroke-opacity:1"
       id="rect5569"
       width="102.15903"
       height="43.458382"
       x="-792.00287"
       y="238.78"
       transform="matrix(-0.97207442,-0.23467278,-0.23467278,0.97207442,0,0)" />
    <circle
       transform="matrix(-0.98863099,-0.15036211,-0.15036211,0.98863099,0,0)"
       r="512"
       cy="152.47038"
       cx="-541.07733"
       id="circle5623"
       style="display:inline;opacity:1;fill:url(#radialGradient5631);fill-opacity:1;stroke:none;stroke-width:2;stroke-linecap:round;stroke-linejoin:round;stroke-miterlimit:4;stroke-dasharray:none;stroke-opacity:1" />
  </g>
  <g
     inkscape:groupmode="layer"
     id="layer2"
     inkscape:label="de jonge onderzoekers logo"
     transform="translate(0,-28.362202)"
     style="display:inline"
     sodipodi:insensitive="true">
    <g
       style="display:inline"
       id="g5499"
       transform="matrix(0.86975352,-0.05918619,0.05918619,0.86975352,58.790035,93.662861)">
      <rect
         transform="matrix(0.97323636,0.22980643,-0.22980643,0.97323636,0,0)"
         ry="15.455156"
         y="214.97491"
         x="506.66629"
         height="58.910801"
         width="439.33273"
         id="rect11434"
         style="opacity:0.75;fill:#000000;fill-opacity:1;stroke:#000000;stroke-width:4;stroke-miterlimit:4;stroke-dasharray:none;stroke-opacity:1" />
      <rect
         transform="matrix(0.97323636,0.22980643,-0.22980643,0.97323636,0,0)"
         style="fill:#ff6600;fill-opacity:1"
         id="rect4403"
         width="439.33273"
         height="58.910801"
         x="505.66629"
         y="213.97495"
         ry="15.455156" />
      <g
         transform="matrix(0.42975771,0.10147698,-0.10147698,0.42975771,494.02725,52.818398)"
         id="g4405">
        <path
           id="path4407"
           transform="translate(0,308.26772)"
           d="m 956.89648,350.55078 c -2.18294,0 -6.475,0.32184 -12.875,0.9668 -5.06045,0.49612 -8.80532,1.48819 -11.23632,2.97656 -4.26666,2.57984 -6.40039,7.66518 -6.40039,15.25586 0,1.24031 0.14763,3.62206 0.44531,7.14453 0.14884,1.83567 0.22461,2.77853 0.22461,2.82813 0.0496,0.29767 0.27303,0.86753 0.66992,1.71093 1.24031,2.8279 3.17524,5.08467 5.80469,6.77149 1.28992,0.69457 2.25738,1.19061 2.90234,1.48828 0.94263,0.69457 1.68668,1.26638 2.23242,1.71289 1.28992,0.84341 3.07526,1.86009 5.35742,3.05078 3.57209,1.88527 6.07687,3.49836 7.51563,4.83789 2.33178,2.23256 3.57382,4.88693 3.72266,7.96289 -1.24031,1.24031 -2.80419,1.85938 -4.68946,1.85938 -1.73643,0 -3.29836,-0.42222 -4.6875,-1.26563 -0.94263,-0.59534 -1.51443,-1.63662 -1.71289,-3.125 -0.19844,-1.88526 -0.47107,-3.07614 -0.81836,-3.57226 -4.862,-0.7938 -9.12751,-1.18946 -12.79883,-1.18946 -2.08371,0 -3.96943,0.12303 -5.65625,0.3711 0.14884,4.41549 0.7433,8.43494 1.78516,12.05664 1.24031,4.26665 4.19192,7.01946 8.85547,8.25976 7.44185,1.93488 13.66885,2.90235 18.67969,2.90235 6.0527,0 10.96383,-1.38968 14.73437,-4.16797 0.99225,-0.74419 1.68709,-1.33865 2.08399,-1.78516 2.18294,-2.57984 3.27539,-6.40047 3.27539,-11.46094 0,-4.56433 -0.89365,-8.03657 -2.67969,-10.41796 -0.64496,-0.69458 -1.1656,-1.21522 -1.5625,-1.5625 -2.67906,-2.57984 -5.95446,-5.11118 -9.82422,-7.5918 -2.03411,-1.28992 -5.62938,-3.39905 -10.78906,-6.32617 -2.67906,-1.538 -4.06874,-2.33126 -4.16797,-2.38086 -1.63721,-1.28992 -2.45703,-3.52208 -2.45703,-6.69727 0,-1.43875 0.10038,-2.45543 0.29883,-3.05078 0.74418,-2.23255 2.15846,-3.54841 4.24218,-3.94531 1.48837,-1.04186 3.02569,-1.5625 4.61329,-1.5625 1.43875,0 2.43082,0.64563 2.97656,1.93555 0.59534,1.43876 0.89258,3.54788 0.89258,6.32617 -0.0992,1.09147 -0.14844,1.90934 -0.14844,2.45508 l -0.22266,5.13476 c 2.38139,0.69457 5.30839,1.09218 8.78125,1.19141 2.97674,0.0496 5.95295,0.0742 8.92969,0.0742 0.19845,-1.5876 0.29883,-3.29912 0.29883,-5.13477 0,-9.2775 -1.01864,-15.45529 -3.05274,-18.53125 -2.431,-3.67131 -6.94453,-5.50586 -13.54297,-5.50586 z m -450.19726,1.11524 -0.5957,0.22265 c -0.54574,0.14886 -0.94139,0.24923 -1.18946,0.29883 -0.79379,0.34729 -1.1914,0.79411 -1.1914,1.33984 0,2.53023 0.0984,6.32432 0.29687,11.38477 0.19845,5.01085 0.29883,8.78227 0.29883,11.3125 0,3.47286 -0.12498,6.59867 -0.37305,9.37695 -1.09146,-2.08371 -2.18197,-4.61505 -3.27343,-7.59179 -0.94264,-2.62946 -1.86089,-5.23266 -2.75391,-7.8125 -0.0992,-0.29768 -0.76946,-2.67943 -2.00977,-7.14454 -0.79379,-2.92712 -1.73665,-5.21045 -2.82812,-6.84765 -0.54574,-0.19845 -1.1402,-0.29688 -1.78516,-0.29688 -0.74418,0 -1.88585,0.1742 -3.42383,0.52149 -1.48837,0.29767 -2.60347,0.44531 -3.34765,0.44531 -0.34729,0 -0.84332,-0.0246 -1.48828,-0.0742 -0.59535,-0.0496 -1.06678,-0.0742 -1.41407,-0.0742 -1.78604,0 -3.1019,0.44682 -3.94531,1.33985 0.14884,6.0527 0.22266,12.08089 0.22266,18.08398 0,13.84183 -0.42026,27.18752 -1.26367,40.03711 l 1.04101,0.9668 c 0.84341,0 2.15927,0.0492 3.94531,0.14843 1.83566,0.14884 3.19878,0.22461 4.0918,0.22461 3.17519,0 5.63075,-0.54719 7.36719,-1.63867 -0.54574,-6.59843 -1.01716,-11.58339 -1.41406,-14.95703 -0.49613,-5.20929 -0.74415,-9.70016 -0.74414,-13.4707 l 0,-1.85938 c 6.69765,16.57052 11.16393,28.89953 13.39648,36.98633 l 1.11523,1.11523 13.69336,0.44727 1.48828,-1.26562 c -0.19845,-17.91004 -0.29687,-27.33667 -0.29687,-28.2793 0,-9.37673 0.22341,-17.86049 0.66992,-25.45117 0.29767,-5.80464 0.59491,-9.6991 0.89258,-11.6836 0.24806,-1.73643 0.37109,-2.7531 0.37109,-3.05078 0,-1.14108 -0.19685,-2.05933 -0.59375,-2.7539 l -14.95898,0 z m -351.125,0.44726 c -2.78139,0.0372 -6.33021,0.18485 -10.64649,0.44531 -5.95347,0.29768 -10.34592,0.44727 -13.17382,0.44727 -2.03411,0 -3.96904,-0.0492 -5.80469,-0.14844 l -0.81836,0.5957 c -0.19845,4.56435 -0.3707,12.87391 -0.51953,24.92969 -0.0992,10.4682 -0.3738,18.75316 -0.82031,24.85547 l 0.44726,0.74414 c 3.07596,0 7.66527,0.1742 13.76758,0.52149 6.15193,0.29767 10.76584,0.44531 13.8418,0.44531 1.78604,0 3.49756,-0.0492 5.13476,-0.14844 1.28992,-0.74418 1.93555,-1.46363 1.93555,-2.1582 0,-4.26666 0.0246,-5.85319 0.0742,-4.76172 -0.0992,-2.08372 -0.42106,-3.64759 -0.9668,-4.68945 -3.72092,0.0992 -6.52489,0.14843 -8.41016,0.14843 l -13.69335,0.0762 -1.11524,-0.82032 c 0,-0.34728 -0.0758,-0.89253 -0.22461,-1.63672 -0.0992,-0.79379 -0.14844,-1.38825 -0.14844,-1.78515 0,-1.24031 0.39761,-2.15856 1.19141,-2.75391 l 18.67773,-0.22265 0.52149,-11.16407 c -1.24031,-0.39688 -2.60538,-0.56913 -4.09375,-0.51953 l -0.89258,0 c -1.24031,0.0496 -2.65459,0.12343 -4.24219,0.22266 l -0.96679,0.0742 -0.0742,0 c -2.33178,0 -4.21749,-0.44683 -5.65625,-1.33985 0,-0.54574 -0.0984,-1.3636 -0.29688,-2.45508 -0.19845,-1.14107 -0.29883,-1.98552 -0.29883,-2.53124 0,-0.99226 0.27458,-1.83473 0.82032,-2.5293 0.99224,0 2.45574,-0.0246 4.39062,-0.0742 1.93488,-0.0496 3.39838,-0.0742 4.39063,-0.0742 2.13333,0 4.06826,0.19685 5.80468,0.59375 0.89302,0.19845 1.66168,0.29883 2.30664,0.29883 1.43877,0 2.65424,-0.373 3.64649,-1.11719 l 0.5957,-12.35351 -0.5957,-1.11524 -1.5625,0 c -0.75659,-0.0124 -1.59826,-0.0124 -2.52539,0 z m 444.76562,0 c -2.78139,0.0372 -6.33021,0.18485 -10.64648,0.44531 -5.95347,0.29768 -10.34398,0.44727 -13.17188,0.44727 -2.0341,0 -3.96903,-0.0492 -5.80468,-0.14844 l -0.81836,0.5957 c -0.19845,4.56435 -0.37265,12.87391 -0.52149,24.92969 -0.0992,10.4682 -0.37184,18.75316 -0.81836,24.85547 l 0.44727,0.74414 c 3.07597,0 7.66331,0.1742 13.76562,0.52149 6.15192,0.29767 10.76779,0.44531 13.84375,0.44531 1.78604,0 3.49756,-0.0492 5.13477,-0.14844 1.28992,-0.74418 1.93359,-1.46363 1.93359,-2.1582 0,-4.26666 0.0246,-5.85319 0.0742,-4.76172 -0.0992,-2.08372 -0.42106,-3.64759 -0.96679,-4.68945 -3.72092,0.0992 -6.52489,0.14843 -8.41016,0.14843 l -13.69141,0.0762 -1.11718,-0.82032 c 0,-0.34728 -0.0738,-0.89253 -0.22266,-1.63672 -0.0992,-0.79379 -0.14844,-1.38825 -0.14844,-1.78515 0,-1.24031 0.39566,-2.15856 1.18945,-2.75391 l 18.67969,-0.22265 0.52149,-11.16407 c -1.24031,-0.39688 -2.60538,-0.56913 -4.09375,-0.51953 l -0.89258,0 c -1.24031,0.0496 -2.6546,0.12343 -4.24219,0.22266 l -0.9668,0.0742 -0.0762,0 c -2.33178,0 -4.21554,-0.44683 -5.65429,-1.33985 0,-0.54574 -0.10038,-1.3636 -0.29883,-2.45508 -0.19845,-1.14107 -0.29688,-1.98552 -0.29688,-2.53124 0,-0.99226 0.27263,-1.83473 0.81836,-2.5293 0.99225,0 2.45575,-0.0246 4.39063,-0.0742 1.93488,-0.0496 3.39838,-0.0742 4.39062,-0.0742 2.13333,0 4.06826,0.19685 5.80469,0.59375 0.89302,0.19845 1.66168,0.29883 2.30664,0.29883 1.43876,0 2.65424,-0.373 3.64648,-1.11719 l 0.59571,-12.35351 -0.59571,-1.11524 -1.5625,0 c -0.75658,-0.0124 -1.59826,-0.0124 -2.52539,0 z m 193.02344,0 c -2.78139,0.0372 -6.33021,0.18485 -10.64648,0.44531 -5.95348,0.29768 -10.34398,0.44727 -13.17188,0.44727 -2.0341,0 -3.96903,-0.0492 -5.80469,-0.14844 l -0.81835,0.5957 c -0.19845,4.56435 -0.37265,12.87391 -0.52149,24.92969 -0.0992,10.4682 -0.37185,18.75316 -0.81836,24.85547 l 0.44531,0.74414 c 3.07597,0 7.66527,0.1742 13.76758,0.52149 6.15192,0.29767 10.76583,0.44531 13.8418,0.44531 1.78604,0 3.49756,-0.0492 5.13476,-0.14844 1.28992,-0.74418 1.93555,-1.46363 1.93555,-2.1582 0,-4.26666 0.0246,-5.85319 0.0742,-4.76172 -0.0992,-2.08372 -0.42106,-3.64759 -0.9668,-4.68945 -3.72092,0.0992 -6.52488,0.14843 -8.41015,0.14843 l -13.69336,0.0762 -1.11524,-0.82032 c 0,-0.34728 -0.0758,-0.89253 -0.22461,-1.63672 -0.0992,-0.79379 -0.14843,-1.38825 -0.14843,-1.78515 0,-1.24031 0.3976,-2.15856 1.1914,-2.75391 l 18.67969,-0.22265 0.51953,-11.16407 c -1.24031,-0.39688 -2.60342,-0.56913 -4.0918,-0.51953 l -0.89453,0 c -1.2403,0.0496 -2.65264,0.12343 -4.24023,0.22266 l -0.96875,0.0742 -0.0742,0 c -2.33178,0 -4.2175,-0.44683 -5.65625,-1.33985 0,-0.54574 -0.0984,-1.3636 -0.29688,-2.45508 -0.19844,-1.14107 -0.29687,-1.98552 -0.29687,-2.53124 0,-0.99226 0.27263,-1.83473 0.81836,-2.5293 0.99225,0 2.45574,-0.0246 4.39062,-0.0742 1.93488,-0.0496 3.39838,-0.0742 4.39063,-0.0742 2.13333,0 4.06825,0.19685 5.80469,0.59375 0.89302,0.19845 1.66168,0.29883 2.30664,0.29883 1.43876,0 2.65424,-0.373 3.64648,-1.11719 l 0.59571,-12.35351 -0.59571,-1.11524 -1.5625,0 c -0.75659,-0.0124 -1.59826,-0.0124 -2.52539,0 z m 78.05078,0 c -2.78138,0.0372 -6.33021,0.18485 -10.64648,0.44531 -5.95348,0.29768 -10.34398,0.44727 -13.17188,0.44727 -2.0341,0 -3.96903,-0.0492 -5.80468,-0.14844 l -0.81836,0.5957 c -0.19845,4.56435 -0.37265,12.87391 -0.52149,24.92969 -0.0992,10.4682 -0.37185,18.75316 -0.81836,24.85547 l 0.44727,0.74414 c 3.07596,0 7.66526,0.1742 13.76758,0.52149 6.15192,0.29767 10.76583,0.44531 13.84179,0.44531 1.78605,0 3.49756,-0.0492 5.13477,-0.14844 1.28992,-0.74418 1.93555,-1.46363 1.93555,-2.1582 0,-4.26666 0.0246,-5.85319 0.0742,-4.76172 -0.0992,-2.08372 -0.42301,-3.64759 -0.96875,-4.68945 -3.72092,0.0992 -6.52293,0.14843 -8.4082,0.14843 l -13.69336,0.0762 -1.11719,-0.82032 c 0,-0.34728 -0.0738,-0.89253 -0.22265,-1.63672 -0.0992,-0.79379 -0.14844,-1.38825 -0.14844,-1.78515 0,-1.24031 0.39761,-2.15856 1.19141,-2.75391 l 18.67773,-0.22265 0.52149,-11.16407 c -1.24031,-0.39688 -2.60539,-0.56913 -4.09375,-0.51953 l -0.89258,0 c -1.24031,0.0496 -2.6546,0.12343 -4.24219,0.22266 l -0.9668,0.0742 -0.0742,0 c -2.33177,0 -4.21749,-0.44683 -5.65625,-1.33985 0,-0.54574 -0.0984,-1.3636 -0.29687,-2.45508 -0.19845,-1.14107 -0.29883,-1.98552 -0.29883,-2.53124 0,-0.99226 0.27262,-1.83473 0.81836,-2.5293 0.99225,0 2.45575,-0.0246 4.39063,-0.0742 1.93488,-0.0496 3.39837,-0.0742 4.39062,-0.0742 2.13333,0 4.06826,0.19685 5.80469,0.59375 0.89302,0.19845 1.66363,0.29883 2.30859,0.29883 1.43876,0 2.65424,-0.373 3.64649,-1.11719 l 0.59375,-12.35351 -0.59375,-1.11524 -1.5625,0 c -0.75659,-0.0124 -1.60022,-0.0124 -2.52735,0 z m -205.91015,1.26563 c -1.68682,0 -3.02534,0.42025 -4.01758,1.26367 0.0496,1.73642 -0.1,4.21856 -0.44727,7.44336 -0.3969,3.42325 -0.59375,5.90342 -0.59375,7.4414 0,0.99225 0.0492,1.88394 0.14844,2.67774 l 30.95703,0.89453 -37.06055,34.00781 -0.89257,11.53516 0.66992,0.5957 35.94336,-2.30664 c 10.71626,-0.64496 17.01707,-1.01796 18.90234,-1.11719 l 0.89453,-0.81836 c 1.04186,-7.54106 1.5625,-12.32917 1.5625,-14.36328 -11.65889,0.69458 -20.36606,1.11679 -26.12109,1.26563 3.77053,-3.82015 9.3273,-9.17811 16.66992,-16.07422 7.68991,-7.19379 13.27128,-12.52714 16.74414,-16 l 1.78516,-11.6836 -0.89258,-0.81835 -40.18555,-3.49805 c -1.93488,-0.14883 -4.0194,-0.22266 -6.25195,-0.22266 l -1.85938,0 -1.7871,0 c -0.44652,0 -1.14136,-0.0246 -2.08399,-0.0742 -0.94263,-0.0992 -1.63747,-0.14843 -2.08398,-0.14843 z m -215.28321,1.48828 c -4.36588,0 -7.96116,1.04128 -10.78906,3.125 -0.74419,0.54573 -1.19101,0.91679 -1.33984,1.11523 -0.14884,0.19846 -0.39686,0.69449 -0.74414,1.48828 -1.38914,3.52248 -2.08399,8.26137 -2.08399,14.21485 0,1.04185 0.0246,2.63034 0.0742,4.76367 0.0496,2.13333 0.0742,3.71986 0.0742,4.76172 0,0.99224 -0.0246,2.50496 -0.0742,4.53906 -0.0496,2.03411 -0.0742,3.54877 -0.0742,4.54102 0,4.61394 0.37106,8.28499 1.11524,11.01367 1.09147,4.0186 2.90336,7.06863 5.43359,9.15234 2.57984,2.08372 6.92112,3.12695 13.02344,3.12695 6.10231,0 11.23686,-1.16626 15.40429,-3.49804 1.09148,-0.59535 1.76171,-1.01756 2.00977,-1.26563 0.24806,-0.24806 0.61911,-0.81793 1.11523,-1.71093 1.68682,-3.07597 2.53125,-7.51763 2.53125,-13.32227 0,-2.33178 -0.12498,-5.43102 -0.37304,-9.30078 -0.24808,-4.66356 -0.39571,-7.78936 -0.44532,-9.37695 -0.14883,-3.86976 -0.27382,-6.77216 -0.37304,-8.70704 -0.14884,-3.82014 -0.96671,-6.47451 -2.45508,-7.96289 -2.03411,-2.08371 -5.4837,-3.77062 -10.3457,-5.06054 -4.11782,-1.09148 -8.01229,-1.63672 -11.6836,-1.63672 z m 285.32032,0 c -4.36589,0 -7.96312,1.04128 -10.79102,3.125 -0.74419,0.54573 -1.19101,0.91679 -1.33984,1.11523 -0.14884,0.19846 -0.39686,0.69449 -0.74414,1.48828 -1.38914,3.52248 -2.08399,8.26137 -2.08399,14.21485 0,1.04185 0.0246,2.63034 0.0742,4.76367 0.0496,2.13333 0.0742,3.71986 0.0742,4.76172 0,0.99224 -0.0246,2.50496 -0.0742,4.53906 -0.0496,2.03411 -0.0742,3.54877 -0.0742,4.54102 0,4.61394 0.37301,8.28499 1.11719,11.01367 1.09147,4.0186 2.90141,7.06863 5.43164,9.15234 2.57984,2.08372 6.92112,3.12695 13.02344,3.12695 6.10231,0 11.23686,-1.16626 15.40429,-3.49804 1.09148,-0.59535 1.76171,-1.01756 2.00977,-1.26563 0.24806,-0.24806 0.62106,-0.81793 1.11719,-1.71093 1.68681,-3.07597 2.52929,-7.51763 2.52929,-13.32227 0,-2.33178 -0.12303,-5.43102 -0.37109,-9.30078 -0.24807,-4.66356 -0.39767,-7.78936 -0.44727,-9.37695 -0.14884,-3.86977 -0.27382,-6.77216 -0.37304,-8.70704 -0.14884,-3.82014 -0.96671,-6.47451 -2.45508,-7.96289 -2.03411,-2.08371 -5.48174,-3.77062 -10.34375,-5.06054 -4.11782,-1.09148 -8.01229,-1.63672 -11.68359,-1.63672 z m -646.087895,1.71093 c -1.984492,10e-6 -4.315076,0.0492 -6.994141,0.14844 l -1.5625,1.04297 c 0.19845,4.0186 0.296875,8.4091 0.296875,13.17188 0,5.40774 -0.174197,12.82366 -0.521484,22.25 -0.347285,10.56742 -0.54609,17.96069 -0.595703,22.17773 l 1.042969,1.04102 c 4.068208,0.54573 7.938064,0.81836 11.609375,0.81836 5.804636,0 11.113384,-0.61907 15.925784,-1.85938 2.8279,-0.74418 5.20769,-2.38188 7.14258,-4.91211 1.6868,-2.28217 2.82848,-4.98575 3.42382,-8.11133 2.03411,-10.56742 3.05078,-18.05911 3.05078,-22.47461 0,-8.23564 -2.18294,-13.9666 -6.54882,-17.1914 -0.74419,-0.54574 -1.8839,-1.18941 -3.42188,-1.9336 -5.85425,-2.77828 -13.47093,-4.16797 -22.847655,-4.16797 z m 444.767575,0 c -1.98449,10e-6 -4.31703,0.0492 -6.99609,0.14844 l -1.5625,1.04297 c 0.19845,4.0186 0.29687,8.4091 0.29687,13.17188 0,5.40774 -0.17224,12.82366 -0.51953,22.25 -0.3473,10.56742 -0.5461,17.96069 -0.5957,22.17773 l 1.04102,1.04102 c 4.06821,0.54573 7.93806,0.81836 11.60937,0.81836 5.80464,0 11.11339,-0.61907 15.92578,-1.85938 2.8279,-0.74418 5.20965,-2.38188 7.14453,-4.91211 1.68682,-2.28217 2.82848,-4.98575 3.42383,-8.11133 2.03411,-10.56742 3.05078,-18.05911 3.05078,-22.47461 0,-8.23564 -2.18294,-13.9666 -6.54883,-17.1914 -0.74418,-0.54574 -1.88584,-1.18941 -3.42382,-1.9336 -5.85425,-2.77828 -13.46898,-4.16797 -22.84571,-4.16797 z m 266.4375,0.52149 -0.5957,0.51953 c 1.09147,11.55967 1.63672,24.1367 1.63672,37.73047 0,7.68991 -0.17225,15.95026 -0.51953,24.78125 l 1.33789,1.33984 12.42969,0 c 1.09146,-1.48837 2.05893,-3.79435 2.90234,-6.91992 0.89302,-3.47286 1.71089,-5.85461 2.45508,-7.14453 2.57984,6.4496 4.46555,11.28692 5.65625,14.51172 0.74418,0.59535 1.88389,0.89258 3.42187,0.89258 l 3.8711,0 c 0.29767,0 1.21397,-0.12499 2.75195,-0.37305 1.09147,-0.14884 1.63867,-0.64487 1.63867,-1.48828 -0.99225,-3.07597 -2.77953,-8.11014 -5.35937,-15.10547 -2.33178,-6.49921 -4.06791,-11.55995 -5.20899,-15.18164 7.29301,-20.14261 10.93945,-30.23946 10.93945,-30.28906 10e-6,-0.54574 -0.29723,-0.99257 -0.89257,-1.33985 -0.59535,-0.3969 -1.1652,-0.74334 -1.71094,-1.04101 -0.54573,0 -1.39017,-0.0492 -2.53125,-0.14844 -1.09147,-0.14884 -1.90935,-0.22461 -2.45508,-0.22461 -2.43101,0 -3.91911,0.71944 -4.46484,2.1582 -5.06046,13.54416 -8.36046,21.95411 -9.89844,25.22852 -0.0496,-0.99225 -0.0742,-2.1093 -0.0742,-3.34961 0,-2.53023 0.0738,-6.32431 0.22266,-11.38477 0.19845,-5.11006 0.29883,-8.93071 0.29883,-11.46093 l -1.04297,-1.41407 -14.8086,-0.29687 z m -193.84179,0.0742 -1.11524,1.26562 c 0,1.38914 0.17225,3.4471 0.51953,6.17578 0.3969,2.72868 0.59571,4.78664 0.59571,6.17579 l 0.0684,25.17968 c -0.0574,8.88536 -0.3507,16.89725 -0.88672,24.01172 l 0.81836,0.81836 17.11718,-0.44531 0.59375,-1.04297 c -0.74416,-6.84649 -1.09061,-13.29495 -1.04101,-19.34766 l 0,-2.38281 1.04101,-0.9668 c 3.72093,0.74419 6.30148,2.67912 7.74024,5.80469 0.69457,1.53798 1.41401,4.76221 2.1582,9.67383 0.64496,4.31627 1.68625,7.44207 3.125,9.37695 2.87751,0.54574 5.28387,0.81836 7.21875,0.81836 2.87751,0 5.30848,-0.56984 7.29297,-1.71094 0.0992,-0.24806 0.14844,-0.52068 0.14844,-0.81835 0,-1.04186 -0.79327,-2.30656 -2.38086,-3.79493 -1.5876,-1.48836 -2.65348,-4.36615 -3.19922,-8.63281 l -0.81836,-6.47461 c -0.24806,-2.08373 -0.37305,-3.15157 -0.37305,-3.20117 -0.94263,-3.52247 -2.77718,-6.07647 -5.50586,-7.66406 l 0,-0.29883 c -0.0496,-0.64496 0.34605,-1.141 1.18946,-1.48828 0.89302,-0.34729 1.58785,-0.5953 2.08398,-0.74414 4.56433,-2.67906 6.8457,-6.67195 6.8457,-11.98047 0,-3.02635 -0.79326,-5.95335 -2.38085,-8.78125 -1.68683,-3.07597 -3.84516,-5.11127 -6.47461,-6.10352 -1.5876,-0.49612 -2.80308,-0.84256 -3.64649,-1.04101 -7.09455,-1.68682 -16.22199,-2.48008 -27.38476,-2.38086 l -3.34961,0 z m 271.07617,0 -1.11719,1.26562 c 0,1.38914 0.17419,3.4471 0.52149,6.17578 0.39689,2.72868 0.5957,4.78664 0.5957,6.17579 l 0.0684,25.17968 c -0.0574,8.88536 -0.35265,16.89725 -0.88867,24.01172 l 0.81835,0.81836 17.11719,-0.44531 0.59571,-1.04297 c -0.74418,-6.84649 -1.09257,-13.29495 -1.04297,-19.34766 l 0,-2.38281 1.04297,-0.9668 c 3.72092,0.74419 6.29952,2.67912 7.73828,5.80469 0.69457,1.53798 1.41402,4.76221 2.1582,9.67383 0.64496,4.31627 1.68819,7.44207 3.12695,9.37695 2.87752,0.54574 5.28387,0.81836 7.21875,0.81836 2.87752,0 5.30848,-0.56984 7.29297,-1.71094 0.0992,-0.24806 0.14844,-0.52068 0.14844,-0.81835 0,-1.04186 -0.79327,-2.30656 -2.38086,-3.79493 -1.58759,-1.48836 -2.65544,-4.36615 -3.20117,-8.63281 l -0.81836,-6.47461 c -0.24807,-2.08373 -0.3711,-3.15157 -0.3711,-3.20117 -0.94263,-3.52247 -2.77913,-6.07647 -5.50781,-7.66406 l 0,-0.29883 c -0.0496,-0.64496 0.348,-1.141 1.19141,-1.48828 0.89303,-0.34729 1.58786,-0.5953 2.08398,-0.74414 4.56434,-2.67906 6.84571,-6.67195 6.84571,-11.98047 0,-3.02635 -0.79327,-5.95335 -2.38086,-8.78125 -1.68682,-3.07597 -3.84516,-5.11127 -6.47461,-6.10352 -1.5876,-0.49612 -2.80308,-0.84256 -3.64649,-1.04101 -7.09456,-1.68682 -16.22395,-2.48008 -27.38672,-2.38086 l -3.34765,0 z m -257.08594,9.37695 c 0.74419,0 1.71165,0.29723 2.90234,0.89258 1.24031,0.54573 2.10935,0.86757 2.60547,0.9668 1.24031,1.33953 2.15856,2.3562 2.75391,3.05078 0.7938,0.89302 1.18945,2.53072 1.18945,4.91211 0,2.72868 -1.13971,4.51597 -3.42187,5.35937 -1.04186,0.3969 -3.32519,0.71874 -6.84766,0.9668 l -1.04101,-0.89258 0.37109,-14.88476 c 0.44651,-0.24807 0.94255,-0.3711 1.48828,-0.3711 z m 271.07617,0 c 0.74418,0 1.71165,0.29723 2.90235,0.89258 1.2403,0.54573 2.10739,0.86757 2.60351,0.9668 1.24031,1.33953 2.15856,2.3562 2.75391,3.05078 0.7938,0.89302 1.1914,2.53072 1.1914,4.91211 0,2.72868 -1.14166,4.51597 -3.42382,5.35937 -1.04186,0.3969 -3.32323,0.71874 -6.84571,0.9668 l -1.04297,-0.89258 0.37305,-14.88476 c 0.44651,-0.24807 0.94254,-0.3711 1.48828,-0.3711 z M 93.398438,368.2617 c 0.496121,0 1.190963,0.22341 2.083984,0.66992 0.595348,0.24806 1.040218,0.42227 1.33789,0.52148 1.835656,0.94264 3.077697,2.30576 3.722658,4.0918 1.43876,4.11783 2.15625,10.32022 2.15625,18.60547 0,2.53023 -0.12303,4.21714 -0.3711,5.06055 -0.4465,1.58759 -1.53895,2.77846 -3.275386,3.57226 -1.73643,0.74418 -3.273749,1.11524 -4.613281,1.11524 -1.190695,0 -2.182766,-0.29723 -2.976562,-0.89258 0,-2.13333 -0.02461,-5.33295 -0.07422,-9.59961 -0.04961,-4.31627 -0.07422,-7.54049 -0.07422,-9.67383 0,-4.26665 0.198805,-8.2861 0.595703,-12.05664 0.09923,-0.94263 0.595259,-1.41406 1.488282,-1.41406 z m 444.765622,0 c 0.49612,0 1.19097,0.22341 2.08399,0.66992 0.59535,0.24806 1.04217,0.42227 1.33984,0.52148 1.83565,0.94264 3.07574,2.30576 3.7207,4.0918 1.43876,4.11783 2.15821,10.32022 2.15821,18.60547 0,2.53023 -0.12499,4.21714 -0.37305,5.06055 -0.44651,1.58759 -1.537,2.77846 -3.27344,3.57226 -1.73643,0.74418 -3.27375,1.11524 -4.61328,1.11524 -1.1907,0 -2.18472,-0.29723 -2.97851,-0.89258 0,-2.13333 -0.0246,-5.33295 -0.0742,-9.59961 -0.0496,-4.31627 -0.0742,-7.54049 -0.0742,-9.67383 0,-4.26665 0.1988,-8.2861 0.5957,-12.05664 0.0992,-0.94263 0.59526,-1.41406 1.48828,-1.41406 z m -83.17968,1.26562 c 2.67905,0 4.63859,0.96747 5.8789,2.90235 0.29769,0.49612 0.47189,0.84256 0.52149,1.04101 0.0992,0.89302 0.14843,1.58787 0.14843,2.08399 0.29768,3.77053 0.44727,8.13642 0.44727,13.09765 0,4.11782 -0.10038,8.65791 -0.29883,13.61914 -0.74419,1.04186 -1.88585,1.5625 -3.42383,1.5625 -0.84341,0 -1.51169,-0.10038 -2.00781,-0.29882 -0.24806,-0.0992 -0.57185,-0.34725 -0.96875,-0.74414 -1.53798,-1.48838 -2.30664,-3.89278 -2.30664,-7.2168 0,-0.69457 0.0246,-1.76241 0.0742,-3.20117 0.0992,-1.43876 0.15039,-2.50465 0.15039,-3.19922 0,-0.19846 -0.12499,-5.95403 -0.37305,-17.26563 0.34729,-0.69457 1.06672,-1.48784 2.15821,-2.38086 z m 285.31835,0 c 2.67906,0 4.6386,0.96747 5.87891,2.90235 0.29768,0.49612 0.4719,0.84256 0.52148,1.04101 0.0992,0.89302 0.14844,1.58787 0.14844,2.08399 0.29768,3.77053 0.44727,8.13642 0.44727,13.09765 0,4.11782 -0.0984,8.65791 -0.29688,13.61914 -0.74418,1.04186 -1.88584,1.5625 -3.42383,1.5625 -0.84339,0 -1.51363,-0.10038 -2.00976,-0.29882 -0.24806,-0.0992 -0.5699,-0.34725 -0.9668,-0.74414 -1.53798,-1.48838 -2.30664,-3.89278 -2.30664,-7.2168 0,-0.69457 0.0246,-1.76241 0.0742,-3.20117 0.0992,-1.43876 0.14844,-2.50465 0.14844,-3.19922 0,-0.19846 -0.12498,-5.95403 -0.37305,-17.26563 0.34729,-0.69457 1.06673,-1.48784 2.1582,-2.38086 z"
           style="font-style:normal;font-variant:normal;font-weight:normal;font-stretch:normal;font-size:medium;line-height:125%;font-family:GoodGirl;-inkscape-font-specification:GoodGirl;letter-spacing:0px;word-spacing:0px;fill:#000000;fill-opacity:1;stroke:none;stroke-width:1px;stroke-linecap:butt;stroke-linejoin:miter;stroke-opacity:1"
           inkscape:connector-curvature="0" />
        <path
           inkscape:connector-curvature="0"
           id="path4409"
           d="m 306.67002,648.15553 -0.59375,0.22265 c -0.54574,0.14884 -0.94335,0.24922 -1.19141,0.29883 -0.79379,0.34729 -1.1914,0.79411 -1.1914,1.33985 0,2.53022 0.10038,6.32431 0.29882,11.38476 0.19845,5.01084 0.29688,8.78228 0.29688,11.3125 0,3.47286 -0.12303,6.59867 -0.37109,9.37696 -1.09147,-2.08372 -2.18392,-4.61506 -3.27539,-7.5918 -0.94264,-2.62945 -1.86089,-5.23266 -2.75391,-7.8125 -0.0992,-0.29768 -0.76751,-2.67943 -2.00781,-7.14453 -0.7938,-2.92713 -1.73666,-5.21045 -2.82813,-6.84766 -0.54573,-0.19845 -1.14215,-0.29687 -1.78711,-0.29687 -0.74418,0 -1.88389,0.17419 -3.42187,0.52148 -1.48837,0.29767 -2.60543,0.44531 -3.34961,0.44531 -0.34729,0 -0.84332,-0.0246 -1.48828,-0.0742 -0.59535,-0.0496 -1.06678,-0.0742 -1.41407,-0.0742 -1.78604,0 -3.09995,0.44682 -3.94335,1.33984 0.14883,6.0527 0.22265,12.0809 0.22265,18.08398 0,13.84184 -0.42221,27.18753 -1.26562,40.03711 l 1.04297,0.9668 c 0.8434,0 2.15731,0.0492 3.94335,0.14844 1.83566,0.14883 3.20073,0.22461 4.09375,0.22461 3.17519,0 5.63076,-0.5472 7.36719,-1.63868 -0.54573,-6.59843 -1.01716,-11.58339 -1.41406,-14.95703 -0.49612,-5.20929 -0.74414,-9.70016 -0.74414,-13.4707 l 0,-1.85937 c 6.69766,16.5705 11.16198,28.89952 13.39453,36.98632 l 1.11719,1.11524 13.6914,0.44726 1.49024,-1.26562 c -0.19845,-17.91004 -0.29883,-27.33666 -0.29883,-28.2793 0,-9.37672 0.22341,-17.86049 0.66992,-25.45117 0.29768,-5.80464 0.59491,-9.6991 0.89258,-11.68359 0.24806,-1.73643 0.37305,-2.75311 0.37305,-3.05078 0,-1.14109 -0.19881,-2.05934 -0.59571,-2.75391 l -14.95898,0 z m 89.57226,0.44726 c -2.78138,0.0372 -6.33021,0.18485 -10.64648,0.44532 -5.95348,0.29767 -10.34397,0.44726 -13.17187,0.44726 -2.03411,0 -3.96904,-0.0492 -5.80469,-0.14843 l -0.82031,0.5957 c -0.19845,4.56433 -0.3707,12.8739 -0.51954,24.92969 -0.0992,10.46819 -0.37184,18.75315 -0.81835,24.85546 l 0.44531,0.74415 c 3.07596,0 7.66526,0.17419 13.76758,0.52148 6.15192,0.29767 10.76583,0.44531 13.84179,0.44531 1.78605,0 3.49756,-0.0492 5.13477,-0.14844 1.28992,-0.74418 1.93555,-1.46363 1.93555,-2.1582 0,-4.26666 0.0246,-5.85319 0.0742,-4.76172 -0.0992,-2.08371 -0.42106,-3.64759 -0.96679,-4.68945 -3.72093,0.0992 -6.52489,0.14844 -8.41016,0.14844 l -13.69336,0.0742 -1.11523,-0.81836 c 0,-0.34729 -0.0758,-0.89254 -0.22461,-1.63672 -0.0992,-0.7938 -0.14844,-1.38826 -0.14844,-1.78516 0,-1.24031 0.39761,-2.15856 1.19141,-2.7539 l 18.67773,-0.22266 0.52148,-11.16406 c -1.2403,-0.3969 -2.60342,-0.5711 -4.09179,-0.52149 l -0.89453,0 c -1.24031,0.0496 -2.65264,0.12539 -4.24024,0.22461 l -0.96875,0.0742 -0.0742,0 c -2.33177,0 -4.21749,-0.44682 -5.65625,-1.33984 0,-0.54574 -0.0984,-1.36361 -0.29687,-2.45508 -0.19845,-1.14108 -0.29688,-1.98552 -0.29688,-2.53125 0,-0.99225 0.27263,-1.83473 0.81836,-2.5293 0.99225,0 2.45575,-0.0246 4.39063,-0.0742 1.93488,-0.0496 3.39838,-0.0762 4.39062,-0.0762 2.13333,0 4.06826,0.19881 5.80469,0.5957 0.89302,0.19845 1.66168,0.29883 2.30664,0.29883 1.43876,0 2.65424,-0.373 3.64649,-1.11719 l 0.5957,-12.35351 -0.5957,-1.11524 -1.5625,0 c -0.75659,-0.0124 -1.59827,-0.0124 -2.5254,0 z m -49.25,2.30665 c -1.38914,0 -4.19311,0.29723 -8.41015,0.89257 -4.0186,0.59535 -6.32458,0.96835 -6.91992,1.11719 -1.73643,0.3969 -3.39874,1.71081 -4.98633,3.94336 -1.43876,1.98449 -2.35701,4.14283 -2.75391,6.47461 -0.59535,3.2248 -0.89258,9.89667 -0.89258,20.01758 l 0,2.60547 0,2.60546 c 0,3.77054 0.27263,6.69754 0.81836,8.78126 0.7938,3.17518 2.33112,5.60615 4.61329,7.29296 3.57208,2.67907 8.01374,4.01758 13.32226,4.01758 6.39999,0 11.33573,-1.78533 14.80859,-5.35742 2.38139,-2.431 3.57227,-6.35007 3.57227,-11.75781 0,-1.5876 -0.10038,-3.6229 -0.29883,-6.10352 -0.19845,-3.42325 -0.32148,-5.4566 -0.37109,-6.10156 l -0.74414,-0.81836 c -8.93022,-0.49612 -15.77628,-0.94295 -20.53906,-1.33984 l -0.74415,0.81836 0,12.72656 c 0.89303,0.89302 2.38113,1.33789 4.46485,1.33789 l 6.32422,0 0.74414,0.82031 0,0.22266 c 0.0496,1.33953 -0.64328,2.60422 -2.08203,3.79492 -1.14109,0.94263 -2.95298,1.41406 -5.4336,1.41406 -1.88526,0 -3.42258,-0.27262 -4.61328,-0.81836 -3.02635,-1.43875 -4.53906,-4.68954 -4.53906,-9.75 0,-1.04186 0.0738,-2.57917 0.22265,-4.61328 0.19845,-2.0341 0.29688,-3.57142 0.29688,-4.61328 0,-0.29767 -0.0246,-0.71989 -0.0742,-1.26563 l 0,-1.33984 c 0,-4.46511 0.79327,-7.1933 2.38086,-8.18555 1.1907,-0.74418 3.69743,-1.11718 7.51758,-1.11718 l 1.18945,0 c 1.09147,0.24806 1.78631,1.36511 2.08399,3.34961 0.29767,2.33177 0.69528,3.72145 1.1914,4.16796 8.0372,-0.29767 13.04871,-0.74449 15.03321,-1.33984 0.0992,-1.19069 0.14843,-2.33236 0.14843,-3.42383 0,-4.81239 -0.71944,-8.85449 -2.1582,-12.1289 -0.34729,-0.84341 -0.5707,-1.31484 -0.66992,-1.41407 -0.99225,-1.04185 -1.95971,-2.00932 -2.90235,-2.90234 -0.0496,-0.0496 -0.42261,-0.22381 -1.11718,-0.52148 -2.38139,-0.99225 -5.20801,-1.48828 -8.48243,-1.48828 z m -96.79882,0.44531 c -4.36589,0 -7.96312,1.04323 -10.79102,3.12695 -0.74418,0.54574 -1.19101,0.91679 -1.33984,1.11524 -0.14884,0.19844 -0.39686,0.69448 -0.74414,1.48828 -1.38915,3.52247 -2.08399,8.26136 -2.08399,14.21484 0,1.04186 0.0246,2.62839 0.0742,4.76172 0.0496,2.13333 0.0742,3.72181 0.0742,4.76367 0,0.99225 -0.0246,2.50496 -0.0742,4.53906 -0.0496,2.03411 -0.0742,3.54682 -0.0742,4.53907 0,4.61394 0.37301,8.28694 1.11719,11.01562 1.09147,4.0186 2.90141,7.06863 5.43164,9.15234 2.57984,2.08372 6.92113,3.125 13.02344,3.125 6.10231,0 11.23686,-1.16431 15.4043,-3.49609 1.09147,-0.59535 1.7617,-1.01756 2.00976,-1.26562 0.24806,-0.24807 0.62107,-0.81792 1.11719,-1.71094 1.68682,-3.07596 2.52929,-7.51763 2.52929,-13.32227 0,-2.33178 -0.12303,-5.43297 -0.37109,-9.30273 -0.24806,-4.66356 -0.39765,-7.78741 -0.44726,-9.375 -0.14884,-3.86976 -0.27383,-6.77215 -0.37305,-8.70703 -0.14884,-3.82015 -0.96671,-6.47452 -2.45508,-7.96289 -2.0341,-2.08372 -5.48174,-3.77063 -10.34375,-5.06055 -4.11782,-1.09147 -8.01228,-1.63867 -11.68359,-1.63867 z m -19.53711,3.64648 c -0.29768,0 -0.76911,0.0266 -1.41407,0.0762 -0.59534,0.0496 -1.04216,0.0742 -1.33984,0.0742 -0.34728,0 -0.66912,-0.0246 -0.9668,-0.0742 -0.49612,0.19845 -1.81198,0.27227 -3.94531,0.22266 -1.68682,-0.0496 -2.87769,0.32144 -3.57226,1.11523 0.29767,10.0713 0.47187,17.36419 0.52148,21.87891 0,1.1907 0.0738,3.0518 0.22266,5.58203 0.19845,2.48062 0.29883,4.36633 0.29883,5.65625 0,3.12558 -0.29919,5.35774 -0.89454,6.69727 -0.94263,2.13333 -2.77718,3.20117 -5.50586,3.20117 -0.69457,0 -1.3648,-0.10038 -2.00976,-0.29883 -1.09147,-1.14108 -1.63672,-2.87721 -1.63672,-5.20898 0,-0.59535 0.0492,-1.56281 0.14844,-2.90235 0.14883,-1.33953 0.19805,-2.35621 0.14844,-3.05078 l 0,-0.44726 c -1.38915,-0.7938 -3.49632,-1.18946 -6.32422,-1.18946 l -5.50782,0 -1.1914,0 -0.22266,0.0742 0.0742,0 c -0.14884,3.72092 -0.22266,6.0023 -0.22266,6.8457 0,6.64805 1.31391,11.23736 3.94336,13.76758 1.43876,1.38915 4.96217,2.08399 10.56836,2.08399 0.0496,0 0.86749,-0.0758 2.45508,-0.22461 2.0341,-0.19845 3.82139,-0.3953 5.35938,-0.59375 3.17518,-0.34729 5.63075,-0.96831 7.36718,-1.86133 2.03411,-0.99225 3.57143,-2.43114 4.61328,-4.31641 0.34729,-0.64496 0.52149,-1.01601 0.52149,-1.11523 l 0.29687,-2.30859 c 1.33954,-10.8651 2.00977,-20.04175 2.00977,-27.53321 0,-4.66355 -0.24802,-8.98023 -0.74414,-12.94922 -0.14884,-1.14108 -0.22266,-1.73749 -0.22266,-1.78711 -0.29767,-0.94263 -1.24053,-1.41406 -2.82812,-1.41406 z m 24.29883,11.01563 c 2.67906,0 4.63859,0.96746 5.8789,2.90234 0.29768,0.49612 0.47187,0.84257 0.52149,1.04102 0.0992,0.89302 0.14843,1.58786 0.14843,2.08398 0.29768,3.77054 0.44727,8.13643 0.44727,13.09766 0,4.11782 -0.0984,8.65791 -0.29688,13.61914 -0.74418,1.04186 -1.88584,1.5625 -3.42382,1.5625 -0.84341,0 -1.51365,-0.10038 -2.00977,-0.29883 -0.24806,-0.0992 -0.5699,-0.34724 -0.9668,-0.74414 -1.53798,-1.48837 -2.30664,-3.89473 -2.30664,-7.21875 0,-0.69457 0.0246,-1.76046 0.0742,-3.19922 0.0992,-1.43876 0.14844,-2.50465 0.14844,-3.19922 0,-0.19845 -0.12499,-5.95402 -0.37305,-17.26562 0.34729,-0.69458 1.06674,-1.48784 2.15821,-2.38086 z"
           style="font-style:normal;font-variant:normal;font-weight:normal;font-stretch:normal;font-size:74.4184494px;line-height:125%;font-family:GoodGirl;-inkscape-font-specification:GoodGirl;letter-spacing:0px;word-spacing:0px;fill:#ffffff;fill-opacity:1;stroke:none;stroke-width:1px;stroke-linecap:butt;stroke-linejoin:miter;stroke-opacity:1" />
      </g>
      <path
         d="m 588.68279,403.93901 -2.358,4.1177 q -0.36254,0.67372 -0.46235,0.88855 -0.13468,0.13288 -0.34759,0.17627 -0.20066,0.05 -0.37215,-0.0423 -0.17149,-0.0923 -0.13672,-0.42109 1.47735,-3.18572 2.61112,-5.29261 0.27504,-0.2469 0.72826,-0.003 0.45323,0.2439 0.33743,0.5765 z m -5.06386,7.38477 q -0.0651,-0.31937 0.0536,-0.53985 0.11865,-0.22049 0.38901,-0.31195 0.27037,-0.0915 0.55211,0.0602 0.29398,0.1582 0.35715,0.33436 0.0754,0.18275 -0.12235,0.55023 -0.34936,0.64921 -0.88833,0.35918 -0.26949,-0.14501 -0.34117,-0.45213 z m -1.68305,-0.65247 q -0.14415,0.61048 -0.70268,0.4786 -0.23379,-0.0552 -0.36656,-1.29332 -0.12969,-1.25111 -0.6579,-2.03406 -0.0864,0.0756 -0.68121,0.38767 -0.57874,0.30218 -0.69113,0.37163 l -0.30671,1.2989 q -0.072,0.1887 -0.13549,0.28341 -0.0635,0.0947 -0.22785,0.1519 -0.15136,0.0602 -0.38516,0.005 -0.3507,-0.0828 -0.24949,-0.51145 0.28523,-1.20798 0.7794,-3.76538 0.49722,-2.57039 0.97262,-4.58369 0.0583,-0.24679 0.28685,-0.34367 0.24156,-0.0938 0.46237,-0.0417 0.29875,0.0706 0.27475,0.46257 l -0.54287,2.29906 q -0.0982,0.41565 -0.13424,0.62654 -0.0361,0.21089 -0.12126,0.6296 -0.17643,0.86341 -0.36607,1.95683 0.44416,-0.19681 1.17282,-0.66927 0.74472,-0.4824 1.14774,-0.85348 0.64243,-0.62996 1.0321,-0.53795 0.10391,0.0245 0.19556,0.10103 0.23596,0.22027 0.18689,0.4281 -0.0491,0.20782 -0.31067,0.5026 -0.65776,0.69491 -1.42466,1.2132 0.43115,0.78747 0.73042,2.13346 0.16668,0.86215 0.0624,1.30378 z m -6.65996,-7.30473 q 0.68842,0.16255 1.21682,0.71243 0.52839,0.54988 0.38731,1.14738 -0.13802,0.58451 -0.77647,1.02342 -0.63539,0.42593 -1.50728,0.34347 -0.37596,-0.0339 -1.10335,-0.20568 -0.11782,1.13781 0.21502,1.58666 0.0962,0.17355 0.31697,0.22569 0.80532,0.19015 1.47047,-0.1876 0.66822,-0.39075 0.90203,-0.33555 0.10391,0.0245 0.26573,0.26845 0.16181,0.24391 0.12194,0.41277 -0.0797,0.33771 -1.04833,0.78095 -0.43424,0.21288 -1.00287,0.29802 -0.55258,0.0752 -0.99421,-0.0291 -1.13004,-0.26684 -1.31909,-1.84735 -0.12609,-0.976 0.12848,-2.05409 0.25457,-1.07809 0.94516,-1.73781 0.6906,-0.65973 1.78167,-0.4021 z m -0.14668,0.91158 q -0.49358,-0.11655 -0.97616,0.35917 -0.1759,0.16417 -0.45536,0.82498 1.81847,0.42939 2.0301,-0.46686 0.12881,-0.54553 -0.59858,-0.71729 z m -3.67786,-1.88322 0.57896,-2.50995 q 0.16562,-0.7014 0.60725,-0.59713 0.45461,0.10735 0.41456,0.50929 -0.0139,0.17499 -0.41658,2.05461 -0.40268,1.87963 -0.7112,3.53465 -0.29553,1.65809 -0.62984,3.07389 -0.092,0.38967 -0.67652,0.25165 -0.38967,-0.092 -0.26085,-0.63755 -0.66281,0.30975 -1.42916,0.12879 -0.97418,-0.23003 -1.41291,-1.10157 -0.42574,-0.86847 -0.17424,-1.93357 0.25149,-1.0651 0.89789,-1.88611 0.66246,-0.83093 1.67976,-1.01583 0.62979,-0.11184 1.16234,0.0139 0.19483,0.046 0.37056,0.1149 z m -0.35525,1.79483 q -0.0234,-0.30722 -0.11959,-0.48078 -0.0931,-0.18653 -0.24283,-0.24932 -0.13367,-0.0727 -0.3415,-0.12179 -0.20782,-0.0491 -0.54337,0.0362 -0.33556,0.0853 -0.62619,0.38696 -0.58127,0.60326 -0.76529,1.38261 -0.18096,0.76635 10e-4,1.33048 0.19826,0.55419 0.75679,0.68608 0.57152,0.13495 1.02813,-0.3469 0.4566,-0.48186 0.6621,-1.35212 0.23002,-0.97418 0.19052,-1.27149 z m -6.89245,-3.49249 0.64638,0.16633 q 0.22082,0.0521 0.24986,0.0453 l 0.62874,-2.66276 q 0.0651,-0.21774 0.30977,-0.32454 0.24462,-0.10679 0.42647,-0.0639 0.18184,0.0429 0.25816,0.18438 0.0893,0.14451 0.018,0.38823 -0.0713,0.24373 -0.65093,2.69866 l 1.53199,0.30689 q 0.38967,0.092 0.28232,0.54662 -0.0797,0.33772 -0.32743,0.4575 -0.23471,0.12285 -0.47158,0.0806 -0.22388,-0.0392 -0.4447,-0.0913 l -0.78926,-0.20007 q -0.12575,0.53255 -0.39295,2.12876 -0.25421,1.59928 -0.29968,2.08222 -0.0424,0.46995 -0.11509,0.60363 -0.0696,0.12069 -0.18582,0.14811 -0.18726,0.0381 -0.47301,-0.0294 -0.28577,-0.0675 -0.26411,-0.39148 0.142,-1.76291 0.75343,-4.75886 -0.11996,-0.0146 -0.8993,-0.19865 -0.77935,-0.18403 -0.672,-0.63864 0.15335,-0.64945 0.88074,-0.4777 z m -7.02867,4.31932 1.10234,-5.30728 q 0.0583,-0.24679 0.26394,-0.36279 0.20566,-0.11599 0.37452,-0.0761 0.41564,0.0981 0.39778,0.46418 -0.0308,0.36297 -0.1198,0.73965 0.91917,-0.75659 1.97128,-0.50816 1.61064,0.38031 0.74267,4.05621 -0.0797,0.33772 -0.2423,1.02613 -0.15949,0.67543 -0.31103,0.96877 -0.18293,0.3682 -0.65054,0.25778 -0.31173,-0.0736 -0.21359,-0.48925 l 0.18474,-0.72432 q 0.35577,-1.50673 0.38068,-2.07681 0.041,-0.58 0.0267,-0.92619 -0.0552,-0.75355 -0.54878,-0.8701 -0.64945,-0.15335 -1.01964,0.25291 -0.40538,0.4391 -0.61989,1.11525 -0.37616,1.18652 -0.69513,2.53737 -0.0613,0.25978 -0.29298,0.36965 -0.23164,0.10986 -0.50441,0.0454 -0.32473,-0.0767 -0.22658,-0.49233 z m -2.08642,-6.45791 q 0.93521,0.22083 1.32108,1.25815 0.39886,1.0404 0.10136,2.30034 -0.29444,1.24694 -1.12648,1.98298 -0.81904,0.7391 -1.84517,0.49681 -1.01315,-0.23923 -1.42499,-1.2827 -0.40879,-1.05645 -0.14809,-2.16052 0.33431,-1.4158 1.10519,-2.12514 0.82211,-0.75209 2.0171,-0.46992 z m -0.40737,1.02829 q -0.54554,-0.12881 -1.03119,0.35989 -0.48565,0.48871 -0.63594,1.12517 -0.23309,0.98717 0.0339,1.59875 0.26699,0.61157 0.76058,0.72812 0.88325,0.20855 1.311,-0.49952 0.18979,-0.33916 0.3186,-0.8847 0.503,-2.1302 -0.75694,-2.42771 z m -8.1581,2.33849 q 0.17302,-0.38426 0.52372,-0.30145 0.3507,0.0828 0.38173,0.4741 -0.20243,0.85728 -0.63775,1.48129 -0.1492,0.22532 -0.37091,0.35124 -0.20874,0.12899 -0.40357,0.083 -0.42864,-0.10121 -0.32129,-0.55583 0.0337,-0.14288 0.10339,-0.26356 0.51,-0.35954 0.7247,-1.26877 z m -2.65428,-5.97492 q 0.68842,0.16255 1.21681,0.71243 0.52839,0.54988 0.38731,1.14738 -0.13802,0.58451 -0.77647,1.02342 -0.63539,0.42593 -1.50728,0.34346 -0.37596,-0.0339 -1.10335,-0.20567 -0.11782,1.13781 0.21502,1.58666 0.0961,0.17354 0.31696,0.22568 0.80533,0.19016 1.47048,-0.1876 0.66823,-0.39074 0.90203,-0.33554 0.10391,0.0245 0.26573,0.26845 0.16181,0.24391 0.12194,0.41277 -0.0797,0.33771 -1.04833,0.78095 -0.43424,0.21287 -1.00288,0.29801 -0.55257,0.0752 -0.9942,-0.0291 -1.13005,-0.26683 -1.31908,-1.84735 -0.12609,-0.97599 0.12847,-2.05408 0.25457,-1.07809 0.94516,-1.73782 0.6906,-0.65972 1.78168,-0.40209 z m -0.14669,0.91158 q -0.49358,-0.11655 -0.97617,0.35917 -0.17589,0.16417 -0.45535,0.82498 1.81847,0.42939 2.03009,-0.46686 0.12882,-0.54554 -0.59857,-0.71729 z m -4.64153,-2.08334 q 0.93521,0.22083 1.32108,1.25815 0.39886,1.0404 0.10135,2.30034 -0.29443,1.24694 -1.12646,1.98298 -0.81905,0.7391 -1.84519,0.49681 -1.01314,-0.23923 -1.42499,-1.28269 -0.40878,-1.05646 -0.14808,-2.16053 0.33431,-1.4158 1.10519,-2.12514 0.82211,-0.75209 2.0171,-0.46992 z m -0.40737,1.02829 q -0.54554,-0.12881 -1.03119,0.35989 -0.48566,0.48871 -0.63594,1.12517 -0.2331,0.98717 0.0339,1.59875 0.26699,0.61157 0.76057,0.72812 0.88326,0.20856 1.311,-0.49952 0.18979,-0.33916 0.31861,-0.8847 0.503,-2.1302 -0.75694,-2.42771 z m -3.85502,-2.06218 0.57896,-2.50995 q 0.16562,-0.7014 0.60725,-0.59712 0.45462,0.10734 0.41457,0.50928 -0.0139,0.17499 -0.41659,2.05461 -0.40268,1.87963 -0.7112,3.53465 -0.29553,1.65809 -0.62983,3.07389 -0.092,0.38967 -0.67653,0.25165 -0.38967,-0.092 -0.26085,-0.63755 -0.66281,0.30975 -1.42916,0.12879 -0.97418,-0.23003 -1.41291,-1.10156 -0.42574,-0.86848 -0.17424,-1.93358 0.25149,-1.0651 0.8979,-1.88611 0.66245,-0.83093 1.67975,-1.01583 0.62979,-0.11184 1.16234,0.0139 0.19483,0.046 0.37056,0.1149 z m -0.35524,1.79483 q -0.0235,-0.30722 -0.1196,-0.48078 -0.0931,-0.18653 -0.24283,-0.24932 -0.13367,-0.0727 -0.3415,-0.12179 -0.20782,-0.0491 -0.54337,0.0363 -0.33555,0.0853 -0.62619,0.38695 -0.58127,0.60326 -0.76529,1.3826 -0.18096,0.76636 10e-4,1.33049 0.19826,0.55419 0.75679,0.68608 0.57152,0.13495 1.02813,-0.3469 0.45661,-0.48186 0.6621,-1.35212 0.23003,-0.97417 0.19052,-1.27149 z m -9.02169,1.40777 q 0.17302,-0.38426 0.52372,-0.30145 0.35071,0.0828 0.38173,0.47411 -0.20243,0.85727 -0.63775,1.48128 -0.14919,0.22532 -0.37091,0.35125 -0.20873,0.12898 -0.40357,0.083 -0.42863,-0.10121 -0.32129,-0.55582 0.0337,-0.14288 0.10339,-0.26357 0.51,-0.35953 0.7247,-1.26877 z m -1.3726,0.0599 q -0.14415,0.61049 -0.70268,0.4786 -0.2338,-0.0552 -0.36656,-1.29332 -0.12969,-1.2511 -0.65791,-2.03406 -0.0864,0.0756 -0.6812,0.38768 -0.57875,0.30217 -0.69114,0.37162 l -0.3067,1.2989 q -0.072,0.1887 -0.13549,0.28342 -0.0635,0.0947 -0.22785,0.15189 -0.15137,0.0603 -0.38516,0.005 -0.35071,-0.0828 -0.24949,-0.51145 0.28523,-1.20798 0.77939,-3.76538 0.49723,-2.57039 0.97263,-4.58369 0.0583,-0.24679 0.28684,-0.34367 0.24156,-0.0938 0.46238,-0.0417 0.29875,0.0705 0.27475,0.46256 l -0.54287,2.29906 q -0.0981,0.41565 -0.13424,0.62654 -0.0361,0.21089 -0.12122,0.62961 -0.17647,0.8634 -0.36607,1.95683 0.44416,-0.1968 1.17282,-0.66927 0.74471,-0.4824 1.14774,-0.85348 0.64243,-0.62996 1.0321,-0.53795 0.10391,0.0245 0.19556,0.10103 0.23596,0.22028 0.18689,0.4281 -0.0491,0.20783 -0.31066,0.5026 -0.65777,0.69491 -1.42467,1.2132 0.43115,0.78747 0.73042,2.13347 0.16669,0.86215 0.0624,1.30377 z m -4.94816,-9.1495 q 0.23379,0.0552 0.38948,0.32509 0.15569,0.26989 0.0974,0.51668 -0.0552,0.23381 -0.34728,0.42539 -0.27909,0.19465 -0.52588,0.13638 -0.24679,-0.0583 -0.40554,-0.31517 -0.14577,-0.25384 -0.0691,-0.57856 0.14722,-0.62348 0.83491,-0.51595 0.013,0.003 0.026,0.006 z m -1.01679,2.44771 q 0.0231,-0.21397 0.22261,-0.30398 0.2026,-0.10301 0.54031,-0.0233 0.33772,0.0797 0.30001,0.41367 -0.1954,1.64059 -0.53278,3.06939 -0.33737,1.42879 -0.76567,2.83612 -0.43136,1.42031 -0.94012,2.12298 -0.68392,0.92185 -1.83994,0.64888 -0.58451,-0.13801 -0.92727,-0.60292 -0.34276,-0.4649 -0.22315,-0.97148 0.0644,-0.27277 0.29298,-0.36964 0.22858,-0.0969 0.46238,-0.0417 0.2338,0.0552 0.3231,0.1997 0.0893,0.14451 0.0945,0.29659 0.0409,0.40735 0.35268,0.48096 0.32473,0.0767 0.66515,-0.37775 0.35342,-0.45137 0.62386,-1.3063 0.28343,-0.85187 0.51346,-1.82604 0.72075,-3.05242 0.83786,-4.24525 z m -1.97626,-3.22301 q 0.2338,0.0552 0.38948,0.32509 0.15569,0.26989 0.0974,0.51668 -0.0552,0.2338 -0.34728,0.42538 -0.27909,0.19466 -0.52588,0.13638 -0.24679,-0.0583 -0.40554,-0.31517 -0.14577,-0.25383 -0.0691,-0.57856 0.14722,-0.62347 0.83492,-0.51594 0.013,0.003 0.026,0.006 z m -1.0616,6.93507 -0.20171,0.9123 q -0.0583,0.24679 -0.29299,0.36964 -0.23163,0.10986 -0.45245,0.0577 -0.32472,-0.0767 -0.26104,-0.40446 0.80953,-4.18338 0.91381,-4.62501 0.10428,-0.44163 0.29355,-1.06889 0.0812,-0.22767 0.35395,-0.16325 0.68842,0.16255 0.64746,0.74254 -0.0285,0.29497 -0.0684,0.46383 l -0.24518,0.80604 -0.68702,2.90955 z m -7.72875,-1.90724 q 0.23617,-1.00016 0.66754,-3.40782 0.44744,-2.41759 0.5068,-3.07552 0.0675,-0.28576 0.31139,-0.44757 0.24697,-0.17482 0.49376,-0.11654 0.31174,0.0736 0.32364,0.48782 -0.0989,1.34798 -0.62353,3.80218 1.42358,-0.80205 2.241,-1.41812 0.83041,-0.613 1.82698,-1.6393 0.29063,-0.30164 0.69329,-0.20656 0.20782,0.0491 0.31011,0.19664 0.11834,0.13765 0.0815,0.29352 -0.0981,0.41565 -1.08082,1.26697 -0.96662,0.84139 -2.01189,1.60935 0.83345,1.34871 1.27541,2.96153 0.061,0.20638 0.16543,0.51902 0.10445,0.31264 0.15857,0.48998 0.14558,0.48691 0.075,0.78566 -0.0705,0.29875 -0.27241,0.45678 -0.18582,0.14811 -0.40664,0.096 -0.22081,-0.0521 -0.43656,-0.70647 -0.21269,-0.66732 -0.6267,-1.87585 -0.39795,-1.21845 -0.93518,-2.19553 -0.89301,0.52966 -1.32111,0.71655 -0.15731,0.8405 -0.28919,1.39903 -0.12882,0.54554 -0.23456,0.87711 -0.27729,0.82589 -0.88778,0.68174 -0.37668,-0.0889 -0.24335,-0.53743 l 0.23923,-1.01314 z"
         style="font-style:normal;font-variant:normal;font-weight:normal;font-stretch:normal;font-size:medium;line-height:125%;font-family:'Patrick Hand';-inkscape-font-specification:'Patrick Hand';letter-spacing:0px;word-spacing:0px;fill:#000000;fill-opacity:1;stroke:none;stroke-width:1px;stroke-linecap:butt;stroke-linejoin:miter;stroke-opacity:1"
         id="path5349"
         inkscape:connector-curvature="0" />
    </g>
  </g>
  <g
     inkscape:groupmode="layer"
     id="layer3"
     inkscape:label="mag"
     style="display:inline"
     sodipodi:insensitive="true">
    <circle
       transform="matrix(-0.06789237,-0.99769265,0.99769265,-0.06789237,0,0)"
       style="display:inline;opacity:1;fill:none;fill-opacity:1;stroke:#000000;stroke-width:18.68980217;stroke-linecap:round;stroke-linejoin:round;stroke-miterlimit:4;stroke-dasharray:none;stroke-opacity:0.37647059"
       id="circle5271"
       cx="-414.6257"
       cy="620.62561"
       r="231.39513" />
    <rect
       transform="matrix(0.75348239,0.65746808,-0.65746808,0.75348239,0,0)"
       style="display:inline;opacity:1;fill:url(#linearGradient5289);fill-opacity:1;stroke:#000000;stroke-width:6.32360363;stroke-linecap:round;stroke-linejoin:round;stroke-miterlimit:4;stroke-dasharray:none;stroke-opacity:1"
       id="rect5275"
       width="55.387833"
       height="406.53964"
       x="704.33905"
       y="121.34973"
       rx="24.877666" />
    <rect
       rx="24.877666"
       y="121.34973"
       x="704.33905"
       height="406.53964"
       width="55.387833"
       id="rect5527"
       style="display:inline;opacity:1;fill:url(#linearGradient5535);fill-opacity:1;stroke:#000000;stroke-width:6.32360363;stroke-linecap:round;stroke-linejoin:round;stroke-miterlimit:4;stroke-dasharray:none;stroke-opacity:1"
       transform="matrix(0.75348239,0.65746808,-0.65746808,0.75348239,0,0)" />
    <path
       style="display:inline;opacity:1;fill:url(#linearGradient5291);fill-opacity:1;stroke:#000000;stroke-width:6.22993422;stroke-linecap:round;stroke-linejoin:round;stroke-miterlimit:4;stroke-dasharray:none;stroke-opacity:1"
       d="m 510.05088,563.4388 -28.35722,32.49823 c -6.8083,7.80163 -18.56869,8.60192 -26.37112,1.79454 l -6.07966,-5.30551 c -7.80105,-6.80748 -8.60139,-18.5687 -1.79448,-26.37026 l 28.3572,-32.49838 z"
       id="path5277"
       inkscape:connector-curvature="0"
       sodipodi:nodetypes="csssscc" />
    <circle
       r="231.39513"
       cy="620.62561"
       cx="-414.6257"
       id="circle5279"
       style="display:inline;opacity:1;fill:url(#radialGradient5293);fill-opacity:1;stroke:#000000;stroke-width:18.68980217;stroke-linecap:round;stroke-linejoin:round;stroke-miterlimit:4;stroke-dasharray:none;stroke-opacity:0.37647059"
       transform="matrix(-0.06789237,-0.99769265,0.99769265,-0.06789237,0,0)" />
    <path
       style="display:inline;opacity:1;fill:url(#linearGradient5295);fill-opacity:1;stroke:none;stroke-width:1.54128754;stroke-linecap:round;stroke-linejoin:round;stroke-miterlimit:4;stroke-dasharray:none;stroke-opacity:1"
       d="M 809.11638,191.50089 A 242.04451,242.04451 0 0 0 630.9051,130.0494 242.04451,242.04451 0 0 0 405.85784,387.96145 242.04451,242.04451 0 0 0 663.77921,613.01657 242.04451,242.04451 0 0 0 888.82647,355.10437 242.04451,242.04451 0 0 0 809.11638,191.50089 Z m -11.10162,12.37188 A 225.41404,225.41404 0 0 1 872.23326,356.22489 225.41404,225.41404 0 0 1 662.64161,596.42411 225.41404,225.41404 0 0 1 422.45246,386.84084 225.41404,225.41404 0 0 1 632.04269,146.64186 225.41404,225.41404 0 0 1 798.01476,203.87277 Z"
       id="path5281"
       inkscape:connector-curvature="0" />
    <path
       style="color:#000000;font-style:normal;font-variant:normal;font-weight:normal;font-stretch:normal;font-size:medium;line-height:normal;font-family:sans-serif;text-indent:0;text-align:start;text-decoration:none;text-decoration-line:none;text-decoration-style:solid;text-decoration-color:#000000;letter-spacing:normal;word-spacing:normal;text-transform:none;direction:ltr;block-progression:tb;writing-mode:lr-tb;baseline-shift:baseline;text-anchor:start;white-space:normal;clip-rule:nonzero;display:inline;overflow:visible;visibility:visible;opacity:1;isolation:auto;mix-blend-mode:normal;color-interpolation:sRGB;color-interpolation-filters:linearRGB;solid-color:#000000;solid-opacity:1;fill:url(#linearGradient5297);fill-opacity:1;fill-rule:nonzero;stroke:none;stroke-width:1.54128754;stroke-linecap:round;stroke-linejoin:round;stroke-miterlimit:4;stroke-dasharray:none;stroke-dashoffset:0;stroke-opacity:1;color-rendering:auto;image-rendering:auto;shape-rendering:auto;text-rendering:auto;enable-background:accumulate"
       d="M 893.61884,354.77159 C 884.36699,218.81373 766.53815,116.01155 630.58084,125.2635 494.62353,134.51531 391.82032,252.33123 401.07217,388.28909 c 9.25184,135.95773 127.06887,238.77301 263.02618,229.5212 135.95731,-9.25181 238.77233,-127.08097 229.52049,-263.0387 z m -9.57863,0.65167 C 892.93974,486.20361 794.22674,599.3323 663.44654,608.23181 532.66631,617.13133 419.55031,518.41746 410.6508,387.63727 401.75126,256.85678 500.45241,143.7412 631.23263,134.84169 c 130.7802,-8.89951 243.90806,89.80123 252.80758,220.58157 z"
       id="path5283"
       inkscape:connector-curvature="0" />
    <circle
       r="143.16605"
       cy="305.43073"
       cx="535.26654"
       id="circle5285"
       style="display:inline;opacity:1;fill:url(#radialGradient5299);fill-opacity:1;stroke:none;stroke-width:0.1;stroke-linecap:round;stroke-linejoin:round;stroke-miterlimit:4;stroke-dasharray:none;stroke-opacity:0.37647059"
       transform="matrix(0.99769265,-0.06789237,0.06789237,0.99769265,0,0)" />
  </g>
</svg>
